<svg xmlns="http://www.w3.org/2000/svg" width="1280" height="720" viewBox="0 0 1280 720">
  <defs>
    <linearGradient id="bg" x1="0" y1="0" x2="1" y2="1">
      <stop offset="0" stop-color="#111413"/>
      <stop offset="0.52" stop-color="#20221d"/>
      <stop offset="1" stop-color="#0b0d0d"/>
    </linearGradient>
    <radialGradient id="warm" cx="64%" cy="38%" r="54%">
      <stop offset="0" stop-color="#d39b4d" stop-opacity="0.32"/>
      <stop offset="0.62" stop-color="#8b5d2c" stop-opacity="0.12"/>
      <stop offset="1" stop-color="#000000" stop-opacity="0"/>
    </radialGradient>
    <pattern id="stone" width="96" height="96" patternUnits="userSpaceOnUse">
      <path d="M0 20H96M0 58H96M28 0V20M72 20V58M42 58V96" stroke="#ffffff" stroke-opacity="0.035" stroke-width="2"/>
    </pattern>
    <filter id="softShadow" x="-20%" y="-20%" width="140%" height="140%">
      <feDropShadow dx="0" dy="18" stdDeviation="20" flood-color="#000" flood-opacity="0.42"/>
    </filter>
  </defs>

  <rect width="1280" height="720" fill="url(#bg)"/>
  <rect width="1280" height="720" fill="url(#warm)"/>
  <rect width="1280" height="720" fill="url(#stone)"/>

  <g opacity="0.22">
    <path d="M88 642C250 490 384 500 529 370C653 258 784 176 1156 92" fill="none" stroke="#d8a056" stroke-width="16" stroke-linecap="round" stroke-dasharray="1 34"/>
    <path d="M162 604C304 498 426 485 545 382C676 268 812 184 1108 126" fill="none" stroke="#ffffff" stroke-width="2" stroke-linecap="round" stroke-dasharray="18 24"/>
  </g>

  <g transform="translate(95 92)" filter="url(#softShadow)">
    <rect x="0" y="0" width="1090" height="536" rx="26" fill="#131716" fill-opacity="0.82" stroke="#d6a052" stroke-opacity="0.4" stroke-width="2"/>
    <rect x="28" y="28" width="1034" height="480" rx="18" fill="none" stroke="#ffffff" stroke-opacity="0.07"/>

    <text x="64" y="118" fill="#d6a052" font-family="Inter, Segoe UI, Arial, sans-serif" font-size="28" font-weight="700" letter-spacing="3">UE4SS MOD FOR GOTHIC 1 REMAKE</text>
    <text x="64" y="214" fill="#f4efe6" font-family="Inter, Segoe UI, Arial, sans-serif" font-size="74" font-weight="800">G1R Cancel</text>
    <text x="64" y="296" fill="#f4efe6" font-family="Inter, Segoe UI, Arial, sans-serif" font-size="74" font-weight="800">Interaction</text>
    <text x="68" y="344" fill="#c9c1b3" font-family="Inter, Segoe UI, Arial, sans-serif" font-size="29">Cancel accidental interactions</text>
    <text x="68" y="382" fill="#c9c1b3" font-family="Inter, Segoe UI, Arial, sans-serif" font-size="29">and early conversations before arrival.</text>

    <g transform="translate(66 428)">
      <rect x="0" y="0" width="120" height="64" rx="12" fill="#252a27" stroke="#d6a052" stroke-width="2"/>
      <text x="60" y="42" text-anchor="middle" fill="#f8f3ea" font-family="Inter, Segoe UI, Arial, sans-serif" font-size="25" font-weight="800">F / R</text>
      <rect x="138" y="0" width="138" height="64" rx="12" fill="#252a27" stroke="#d6a052" stroke-width="2"/>
      <text x="207" y="42" text-anchor="middle" fill="#f8f3ea" font-family="Inter, Segoe UI, Arial, sans-serif" font-size="26" font-weight="800">ESC</text>
      <rect x="294" y="0" width="232" height="64" rx="12" fill="#252a27" stroke="#d6a052" stroke-width="2"/>
      <text x="410" y="42" text-anchor="middle" fill="#f8f3ea" font-family="Inter, Segoe UI, Arial, sans-serif" font-size="26" font-weight="800">WASD</text>
    </g>

    <g transform="translate(760 154)">
      <circle cx="118" cy="118" r="108" fill="#241f18" stroke="#d6a052" stroke-width="6"/>
      <path d="M70 118h96" stroke="#f4efe6" stroke-width="16" stroke-linecap="round"/>
      <path d="M118 70v96" stroke="#f4efe6" stroke-width="16" stroke-linecap="round"/>
      <circle cx="118" cy="118" r="74" fill="none" stroke="#cf483c" stroke-width="18"/>
      <path d="M66 66l104 104" stroke="#cf483c" stroke-width="18" stroke-linecap="round"/>
      <path d="M254 242c70 20 126 54 168 108" fill="none" stroke="#d6a052" stroke-width="10" stroke-linecap="round" stroke-dasharray="1 24"/>
      <path d="M382 330l46 12-26 40" fill="none" stroke="#d6a052" stroke-width="10" stroke-linecap="round" stroke-linejoin="round"/>
    </g>
  </g>
</svg>
