<svg xmlns="http://www.w3.org/2000/svg" width="1280" height="720" viewBox="0 0 1280 720">
  <defs>
    <linearGradient id="bg" x1="0" y1="0" x2="1" y2="1">
      <stop offset="0" stop-color="#0e1110"/>
      <stop offset="1" stop-color="#22251f"/>
    </linearGradient>
    <filter id="shadow" x="-15%" y="-15%" width="130%" height="130%">
      <feDropShadow dx="0" dy="10" stdDeviation="12" flood-color="#000" flood-opacity="0.36"/>
    </filter>
  </defs>
  <rect width="1280" height="720" fill="url(#bg)"/>
  <text x="80" y="86" fill="#f4efe6" font-family="Inter, Segoe UI, Arial, sans-serif" font-size="54" font-weight="800">Focused scope, safer cancellation</text>
  <text x="82" y="130" fill="#c9c1b3" font-family="Inter, Segoe UI, Arial, sans-serif" font-size="24">Version 0.8 follows the game's own interaction and conversation flow.</text>

  <g transform="translate(80 188)" fill="none" filter="url(#shadow)" font-family="Inter, Segoe UI, Arial, sans-serif">
    <g>
      <rect width="340" height="178" rx="20" fill="#161a18" stroke="#ffffff" stroke-opacity="0.08"/>
      <g transform="translate(0 -24)">
        <path d="M132 76h76c0 34-17 48-38 48s-38-14-38-48Z" stroke="#d6a052" stroke-width="8" stroke-linejoin="round"/>
        <path d="M146 54c-8-18 18-22 10-40M172 54c-8-18 18-22 10-40M198 54c-8-18 18-22 10-40" stroke="#f4efe6" stroke-width="5" stroke-linecap="round"/>
      </g>
      <text x="170" y="142" text-anchor="middle" fill="#f4efe6" font-size="26" font-weight="800">Interaction objects</text>
      <text x="170" y="167" text-anchor="middle" fill="#c9c1b3" font-size="18">including benches + ladders</text>
    </g>
    <g transform="translate(390 0)">
      <rect width="340" height="178" rx="20" fill="#161a18" stroke="#ffffff" stroke-opacity="0.08"/>
      <g transform="translate(0 -22)">
        <path d="M136 82l62-62M181 20l34 34M124 94l24 24" stroke="#d6a052" stroke-width="9" stroke-linecap="round"/>
        <path d="M120 34h94M120 58h58M120 82h34" stroke="#f4efe6" stroke-width="5" stroke-linecap="round" opacity="0.85"/>
      </g>
      <text x="170" y="142" text-anchor="middle" fill="#f4efe6" font-size="26" font-weight="800">Early conversations</text>
      <text x="170" y="167" text-anchor="middle" fill="#c9c1b3" font-size="18">before the dialogue UI</text>
    </g>
    <g transform="translate(780 0)">
      <rect width="340" height="178" rx="20" fill="#161a18" stroke="#ffffff" stroke-opacity="0.08"/>
      <g transform="translate(0 -24)">
        <path d="M130 44h80v36h-80Z" stroke="#d6a052" stroke-width="8" stroke-linejoin="round"/>
        <path d="M142 80v46M198 80v46M120 126h100" stroke="#f4efe6" stroke-width="8" stroke-linecap="round"/>
      </g>
      <text x="170" y="142" text-anchor="middle" fill="#f4efe6" font-size="26" font-weight="800">Player-owned only</text>
      <text x="170" y="167" text-anchor="middle" fill="#c9c1b3" font-size="18">NPC actions stay untouched</text>
    </g>

    <g transform="translate(0 222)">
      <rect width="340" height="178" rx="20" fill="#161a18" stroke="#ffffff" stroke-opacity="0.08"/>
      <g transform="translate(0 -24)">
        <path d="M112 88h116M122 58h82c18 0 30 12 30 30v34H112V58Z" stroke="#d6a052" stroke-width="8" stroke-linejoin="round"/>
        <path d="M126 40h70" stroke="#f4efe6" stroke-width="8" stroke-linecap="round"/>
      </g>
      <text x="170" y="142" text-anchor="middle" fill="#f4efe6" font-size="26" font-weight="800">Exact cancel window</text>
      <text x="170" y="167" text-anchor="middle" fill="#c9c1b3" font-size="18">closes on arrival or UI</text>
    </g>
    <g transform="translate(390 222)">
      <rect width="340" height="178" rx="20" fill="#161a18" stroke="#ffffff" stroke-opacity="0.08"/>
      <g transform="translate(0 -24)">
        <path d="M116 58h108v64H116Z" stroke="#d6a052" stroke-width="8" stroke-linejoin="round"/>
        <path d="M132 58V36h76v22M116 82h108M170 82v24" stroke="#f4efe6" stroke-width="7" stroke-linecap="round" stroke-linejoin="round"/>
      </g>
      <text x="170" y="142" text-anchor="middle" fill="#f4efe6" font-size="26" font-weight="800">Keyboard + mouse</text>
      <text x="170" y="167" text-anchor="middle" fill="#c9c1b3" font-size="18">configurable cancel keys</text>
    </g>
    <g transform="translate(780 222)">
      <rect width="340" height="178" rx="20" fill="#161a18" stroke="#ffffff" stroke-opacity="0.08"/>
      <g transform="translate(0 -24)">
        <path d="M116 116l18-58 38-28 42 20 18 66Z" stroke="#d6a052" stroke-width="8" stroke-linejoin="round"/>
        <path d="M134 58l38 22 42-30M172 80l-12 36M172 80l34 36" stroke="#f4efe6" stroke-width="6" stroke-linecap="round" stroke-linejoin="round"/>
      </g>
      <text x="170" y="142" text-anchor="middle" fill="#f4efe6" font-size="24" font-weight="800">Mining always cancellable</text>
      <text x="170" y="167" text-anchor="middle" fill="#c9c1b3" font-size="18">ore on cancel: on or off</text>
    </g>
  </g>

  <text x="80" y="664" fill="#8f887c" font-family="Inter, Segoe UI, Arial, sans-serif" font-size="20">No controller input in v0.8  •  Requires PleasureLib 0.5.1 or newer.</text>
</svg>
