<svg xmlns="http://www.w3.org/2000/svg" width="1280" height="720" viewBox="0 0 1280 720">
  <defs>
    <linearGradient id="bg" x1="0" y1="0" x2="1" y2="1">
      <stop offset="0" stop-color="#101312"/>
      <stop offset="1" stop-color="#24231d"/>
    </linearGradient>
    <filter id="shadow" x="-15%" y="-15%" width="130%" height="130%">
      <feDropShadow dx="0" dy="12" stdDeviation="14" flood-color="#000" flood-opacity="0.35"/>
    </filter>
  </defs>
  <rect width="1280" height="720" fill="url(#bg)"/>
  <text x="78" y="86" fill="#f4efe6" font-family="Inter, Segoe UI, Arial, sans-serif" font-size="54" font-weight="800">Manual installation</text>
  <text x="80" y="130" fill="#c9c1b3" font-family="Inter, Segoe UI, Arial, sans-serif" font-size="24">Place the mod folder inside the game's UE4SS Mods directory.</text>

  <g transform="translate(80 188)" filter="url(#shadow)">
    <rect width="1120" height="414" rx="24" fill="#151917" stroke="#ffffff" stroke-opacity="0.08"/>
    <g transform="translate(48 46)">
      <rect width="1024" height="64" rx="12" fill="#0f1211" stroke="#d6a052" stroke-opacity="0.55"/>
      <text x="24" y="41" fill="#f4efe6" font-family="Consolas, Menlo, monospace" font-size="24">&lt;GameDir&gt;/G1R/Binaries/Win64/ue4ss/Mods/G1R_CancelInteraction/</text>
    </g>

    <g transform="translate(72 146)" font-family="Inter, Segoe UI, Arial, sans-serif">
      <text x="0" y="0" fill="#d6a052" font-size="26" font-weight="800">Folder contents</text>
      <g transform="translate(0 42)" font-family="Consolas, Menlo, monospace" font-size="23">
        <path d="M18 22h28M32 8v28" stroke="#d6a052" stroke-width="5" stroke-linecap="round"/>
        <text x="70" y="30" fill="#f4efe6">enabled.txt</text>
        <path d="M18 76h28M32 62v28" stroke="#d6a052" stroke-width="5" stroke-linecap="round"/>
        <text x="70" y="84" fill="#f4efe6">G1R_CancelInteraction.ini</text>
        <path d="M18 130h28M32 116v28" stroke="#d6a052" stroke-width="5" stroke-linecap="round"/>
        <text x="70" y="138" fill="#f4efe6">Scripts/main.lua</text>
        <path d="M18 184h28M32 170v28" stroke="#d6a052" stroke-width="5" stroke-linecap="round"/>
        <text x="70" y="192" fill="#f4efe6">Scripts/cancel_core.lua</text>
      </g>
    </g>

    <g transform="translate(704 158)">
      <rect width="330" height="226" rx="18" fill="#0f1211" stroke="#ffffff" stroke-opacity="0.08"/>
      <text x="28" y="50" fill="#d6a052" font-family="Inter, Segoe UI, Arial, sans-serif" font-size="24" font-weight="800">Requirements</text>
      <text x="28" y="96" fill="#f4efe6" font-family="Inter, Segoe UI, Arial, sans-serif" font-size="24">Gothic 1 Remake</text>
      <text x="28" y="136" fill="#f4efe6" font-family="Inter, Segoe UI, Arial, sans-serif" font-size="24">UE4SS enabled</text>
      <path d="M28 176h274" stroke="#ffffff" stroke-opacity="0.1"/>
      <text x="28" y="207" fill="#c9c1b3" font-family="Inter, Segoe UI, Arial, sans-serif" font-size="20">The mod loads automatically.</text>
    </g>
  </g>

  <g transform="translate(82 642)">
    <rect width="190" height="40" rx="20" fill="#252a27" stroke="#d6a052" stroke-opacity="0.45"/>
    <text x="95" y="27" text-anchor="middle" fill="#f4efe6" font-family="Inter, Segoe UI, Arial, sans-serif" font-size="17" font-weight="700">No launcher needed</text>
    <rect x="212" width="230" height="40" rx="20" fill="#252a27" stroke="#d6a052" stroke-opacity="0.45"/>
    <text x="327" y="27" text-anchor="middle" fill="#f4efe6" font-family="Inter, Segoe UI, Arial, sans-serif" font-size="17" font-weight="700">Config file included</text>
  </g>
</svg>
